<svg width="58" height="59" viewBox="0 0 58 59" fill="none" xmlns="http://www.w3.org/2000/svg">
<path fill-rule="evenodd" clip-rule="evenodd" d="M7.25 18.2815C7.25 13.265 11.1906 9.19995 16.0536 9.19995H41.9464C46.8094 9.19995 50.75 13.265 50.75 18.2815C50.75 23.2981 46.8094 27.3631 41.9464 27.3631H16.0536C11.1906 27.3631 7.25 23.2981 7.25 18.2815ZM20.7144 18.2815C20.7144 15.6271 18.6268 13.4736 16.0537 13.4736C13.4806 13.4736 11.393 15.6271 11.393 18.2815C11.393 20.9359 13.4806 23.0894 16.0537 23.0894C18.6268 23.0894 20.7144 20.9359 20.7144 18.2815ZM16.0536 31.6368C11.1906 31.6368 7.25 35.7018 7.25 40.7184C7.25 45.7349 11.1906 49.7999 16.0536 49.7999H41.9464C46.8094 49.7999 50.75 45.7349 50.75 40.7184C50.75 35.7018 46.8094 31.6368 41.9464 31.6368H16.0536ZM46.607 40.7184C46.607 38.064 44.5194 35.9105 41.9463 35.9105C39.3732 35.9105 37.2856 38.064 37.2856 40.7184C37.2856 43.3728 39.3732 45.5263 41.9463 45.5263C44.5194 45.5263 46.607 43.3728 46.607 40.7184Z" fill="#FFFEB1"/>
</svg>
