<svg width="58" height="58" viewBox="0 0 58 58" fill="none" xmlns="http://www.w3.org/2000/svg">
<path fill-rule="evenodd" clip-rule="evenodd" d="M6.07422 21.849C6.07422 21.1385 6.65019 20.5625 7.36069 20.5625H21.2975C22.008 20.5625 22.584 21.1385 22.584 21.849V21.849C22.584 22.5595 22.008 23.1355 21.2975 23.1355H7.36069C6.65019 23.1355 6.07422 22.5595 6.07422 21.849V21.849Z" fill="#BBEFB1"/>
<path fill-rule="evenodd" clip-rule="evenodd" d="M37.3672 21.849C37.3672 21.1385 37.9432 20.5625 38.6537 20.5625H52.5905C53.301 20.5625 53.8769 21.1385 53.8769 21.849V21.849C53.8769 22.5595 53.301 23.1355 52.5905 23.1355H38.6537C37.9432 23.1355 37.3672 22.5595 37.3672 21.849V21.849Z" fill="#BBEFB1"/>
<path fill-rule="evenodd" clip-rule="evenodd" d="M30.8683 10.3935C30.1867 9.91375 29.2824 9.91375 28.6008 10.3935L14.49 20.3246C13.3523 21.1254 13.3523 22.83 14.49 23.6307L28.6008 33.5619C29.2824 34.0416 30.1867 34.0416 30.8683 33.5619L44.9791 23.6307C46.1168 22.83 46.1168 21.1253 44.9791 20.3246L30.8683 10.3935ZM25.252 21.0979C25.0915 21.2605 24.874 21.352 24.6466 21.3521C24.4191 21.3521 24.2016 21.2606 24.0411 21.0979C23.8805 20.9352 23.7902 20.715 23.7902 20.4845C23.7902 19.0477 24.9409 17.882 26.3593 17.882C27.7777 17.882 28.9285 19.0477 28.9285 20.4845C28.9285 20.964 28.5455 21.352 28.0721 21.352C27.5988 21.352 27.2157 20.964 27.2157 20.4845C27.2157 20.005 26.8327 19.617 26.3593 19.617C25.886 19.617 25.5029 20.005 25.5029 20.4845C25.5029 20.715 25.4126 20.9352 25.252 21.0979ZM32.1032 21.0979C31.9426 21.2605 31.7251 21.352 31.4977 21.3521C31.2702 21.3521 31.0527 21.2606 30.8922 21.0979C30.7316 20.9352 30.6413 20.715 30.6413 20.4845C30.6413 19.0477 31.792 17.882 33.2104 17.882C34.6288 17.882 35.7796 19.0477 35.7796 20.4845C35.7796 20.964 35.3966 21.352 34.9232 21.352C34.4499 21.352 34.0668 20.964 34.0668 20.4845C34.0668 20.005 33.6838 19.617 33.2104 19.617C32.7371 19.617 32.3541 20.005 32.3541 20.4845C32.3541 20.715 32.2637 20.9352 32.1032 21.0979ZM25.7556 25.9455C25.4645 26.2895 25.4846 26.8029 25.8007 27.1231C26.1169 27.4433 26.6237 27.4637 26.9632 27.1689L27.4684 26.6605C28.7646 25.4084 30.8053 25.4084 32.1014 26.6605L32.6066 27.1689C32.9461 27.4637 33.453 27.4433 33.7691 27.1231C34.0852 26.8029 34.1053 26.2895 33.8142 25.9455L33.3124 25.4338C31.3638 23.4616 28.2057 23.4616 26.257 25.4338L25.7556 25.9455Z" fill="#BBEFB1"/>
<path fill-rule="evenodd" clip-rule="evenodd" d="M28.7969 32.124C28.7969 31.4226 29.3655 30.854 30.0669 30.854V30.854C30.7682 30.854 31.3368 31.4226 31.3368 32.124V42.779C31.3368 43.4804 30.7682 44.049 30.0669 44.049V44.049C29.3655 44.049 28.7969 43.4804 28.7969 42.779V32.124Z" fill="#BBEFB1"/>
<path fill-rule="evenodd" clip-rule="evenodd" d="M30.0656 47.9052L33.2405 42.7593H26.8906L30.0656 47.9052Z" fill="#BBEFB1"/>
<path fill-rule="evenodd" clip-rule="evenodd" d="M56.5995 21.8488L51.5195 18.6326V25.0649L56.5995 21.8488Z" fill="#BBEFB1"/>
<path fill-rule="evenodd" clip-rule="evenodd" d="M2.89664 21.8488L7.97656 18.6326V25.0649L2.89664 21.8488Z" fill="#BBEFB1"/>
</svg>
