<svg width="42" height="42" viewBox="0 0 42 42" fill="none" xmlns="http://www.w3.org/2000/svg">
<rect width="42" height="42" rx="8" fill="#007AFF"/>
<path d="M19.9281 18.3772L8.65728 29.6784C8.41772 29.9186 8.22767 30.2037 8.09798 30.5176C7.96835 30.8314 7.90156 31.1677 7.90156 31.5075C7.90156 31.8471 7.96821 32.1835 8.09784 32.4973C8.22746 32.8112 8.41751 33.0964 8.65707 33.3366C8.89655 33.5768 9.18095 33.7674 9.49396 33.8974C9.8069 34.0274 10.1424 34.0943 10.4812 34.0944C10.82 34.0944 11.1554 34.0275 11.4684 33.8975C11.7815 33.7676 12.0659 33.5771 12.3054 33.3369L17.0692 28.5603C17.2617 28.4165 17.4993 28.3469 17.7387 28.3642C17.9781 28.3815 18.2033 28.4845 18.3733 28.6544C18.563 28.8438 18.6706 29.1005 18.6727 29.3689C18.6747 29.6373 18.5709 29.8957 18.3839 30.0878L14.8968 33.5843C14.413 34.0694 14.1413 34.7274 14.1413 35.4134C14.1413 36.0995 14.4132 36.7574 14.897 37.2425C15.3809 37.7275 16.0371 38 16.7212 38C17.4055 37.9999 18.0616 37.7274 18.5454 37.2422L28.2654 27.4956C28.3586 27.4021 28.4692 27.3281 28.5909 27.2775C28.7126 27.2269 28.8431 27.2009 28.9748 27.2009C29.1066 27.2009 29.237 27.2269 29.3588 27.2775C29.4804 27.3281 29.5911 27.4021 29.6842 27.4956C29.7774 27.589 29.8513 27.6999 29.9017 27.8219C29.9521 27.944 29.9781 28.0748 29.9781 28.2069C29.9781 28.339 29.9521 28.4698 29.9017 28.5919C29.8513 28.7139 29.7774 28.8248 29.6842 28.9182L29.084 29.5175C28.6002 30.0027 28.3285 30.6606 28.3286 31.3467C28.3286 32.0327 28.6004 32.6906 29.0843 33.1757C29.5681 33.6608 30.2243 33.9332 30.9085 33.9332C31.5927 33.9332 32.2488 33.6606 32.7326 33.1754L36.8094 29.0878C37.2932 28.6027 37.565 27.9448 37.5651 27.2587C37.5651 26.5727 37.2934 25.9147 36.8096 25.4296C36.3258 24.9444 35.6697 24.6719 34.9855 24.6718C34.3012 24.6718 33.645 24.9443 33.1612 25.4293L32.5696 26.0246C32.3814 26.2132 32.1261 26.3192 31.86 26.3192C31.5939 26.3191 31.3387 26.2131 31.1506 26.0243C30.9624 25.8356 30.8567 25.5797 30.8567 25.3128C30.8568 25.0459 30.9626 24.7901 31.1508 24.6014L37.2445 18.4944C37.7283 18.0092 38.0001 17.3513 38 16.6652C37.9999 15.9791 37.7281 15.3212 37.2443 14.8362C36.7604 14.3511 36.1042 14.0786 35.42 14.0787C34.7359 14.0788 34.0797 14.3513 33.5959 14.8364L21.2693 27.1937C21.0778 27.3812 20.8201 27.4854 20.5525 27.4834C20.2848 27.4815 20.0287 27.3737 19.8398 27.1834C19.6704 27.0127 19.5678 26.7867 19.5507 26.5465C19.5337 26.3063 19.6033 26.0679 19.7469 25.8749L27.5875 18.0142C28.0609 17.5269 28.3238 16.8723 28.3193 16.192C28.3149 15.5118 28.0434 14.8606 27.5637 14.3796C27.0839 13.8986 26.4346 13.6264 25.7562 13.622C25.0777 13.6175 24.4249 13.8811 23.9389 14.3558L22.4555 15.8431C22.2649 15.9558 22.0423 16.0019 21.8227 15.9742C21.6031 15.9466 21.3989 15.8468 21.2419 15.6904C21.0521 15.501 20.9445 15.2443 20.9425 14.9759C20.9404 14.7074 21.0443 14.4491 21.2312 14.257L27.0797 8.39234C27.5531 7.90504 27.816 7.25038 27.8115 6.57015C27.8071 5.88985 27.5356 5.23873 27.0559 4.75771C26.5761 4.2767 25.9267 4.00451 25.2484 4.00006C24.5699 3.9956 23.917 4.25925 23.4311 4.73391L13.709 14.4805C13.5208 14.6692 13.2656 14.7752 12.9994 14.7751C12.7332 14.775 12.4781 14.669 12.2899 14.4803C12.1018 14.2915 11.9961 14.0356 11.9962 13.7688C11.9962 13.502 12.102 13.246 12.2902 13.0574L15.0207 10.3216C15.2674 10.0831 15.4643 9.79766 15.5998 9.48196C15.7353 9.16632 15.8067 8.82673 15.8098 8.48305C15.813 8.13944 15.7478 7.79858 15.6181 7.48047C15.4884 7.16236 15.2968 6.87336 15.0544 6.63034C14.8121 6.38733 14.5238 6.19518 14.2066 6.06512C13.8893 5.93506 13.5494 5.86972 13.2066 5.8729C12.8639 5.87601 12.5253 5.94764 12.2104 6.08349C11.8956 6.21934 11.611 6.41671 11.3731 6.66418L5.1676 12.8858C4.68381 13.3708 4.41195 14.0288 4.41188 14.7148C4.41188 15.0545 4.47854 15.3909 4.60816 15.7048C4.73779 16.0186 4.92783 16.3038 5.16739 16.5439C5.40688 16.7842 5.69127 16.9747 6.00429 17.1047C6.31723 17.2348 6.6527 17.3017 6.99149 17.3017C7.67567 17.3017 8.33187 17.0293 8.81573 16.5442L9.40634 15.952C9.59447 15.7633 9.84969 15.6573 10.1158 15.6572C10.3819 15.6572 10.6372 15.7631 10.8254 15.9518C11.0136 16.1404 11.1194 16.3964 11.1194 16.6632C11.1194 16.93 11.0138 17.186 10.8256 17.3747L4.73191 23.4817C4.25853 23.9691 3.99559 24.6237 4.00006 25.3039C4.00452 25.9842 4.27595 26.6353 4.75571 27.1163C5.23546 27.5973 5.88479 27.8695 6.56323 27.874C7.24167 27.8785 7.89454 27.6148 8.38053 27.1402L18.3453 17.1501C18.5369 16.9627 18.7945 16.8586 19.0623 16.8606C19.33 16.8626 19.586 16.9705 19.7748 17.1608C19.9308 17.3181 20.0306 17.5227 20.0583 17.7428C20.086 17.9629 20.0403 18.186 19.9281 18.3772Z" fill="#FAFAFA"/>
</svg>
